<?xml version="1.0" encoding="utf-8"?>
<!-- Generator: Adobe Illustrator 17.0.2, SVG Export Plug-In . SVG Version: 6.00 Build 0)  -->
<!DOCTYPE svg PUBLIC "-//W3C//DTD SVG 1.1//EN" "http://www.w3.org/Graphics/SVG/1.1/DTD/svg11.dtd">
<svg version="1.1" id="Layer_1" xmlns="http://www.w3.org/2000/svg" xmlns:xlink="http://www.w3.org/1999/xlink" x="0px" y="0px"
	 width="115.286px" height="32.44px" viewBox="0 0 115.286 32.44" enable-background="new 0 0 115.286 32.44" xml:space="preserve">
<path fill-rule="evenodd" clip-rule="evenodd" fill="#231F20" d="M51.388,13.693c0.726,0.183,1.34,0.492,1.846,0.989
	c1.178,1.156,1.518,2.574,1.216,4.153c-0.386,2.019-1.914,3.364-4.123,3.577c-1.093,0.105-2.199,0.068-3.3,0.085
	c-0.658,0.01-1.317,0.008-1.975,0c-0.557-0.008-0.806-0.259-0.825-0.817c-0.008-0.239-0.004-0.479-0.004-0.718
	c0-4.609,0-9.218,0-13.827c0-0.168-0.004-0.336,0.01-0.503c0.035-0.423,0.256-0.695,0.68-0.69c1.757,0.022,3.523-0.017,5.269,0.15
	c1.483,0.142,2.607,0.985,3.053,2.471c0.478,1.593,0.329,3.112-0.885,4.377C52.085,13.218,51.74,13.422,51.388,13.693
	 M45.798,14.609v6.443c0.049,0.018,0.083,0.041,0.116,0.041c1.387-0.011,2.775,0.011,4.16-0.05c0.713-0.032,1.369-0.33,1.895-0.841
	c0.953-0.928,1.081-2.067,0.773-3.283c-0.293-1.159-1.11-1.82-2.234-2.094C48.966,14.449,47.394,14.683,45.798,14.609
	 M45.797,13.213c1.185,0,2.332,0.003,3.479-0.004c0.153-0.001,0.308-0.045,0.458-0.083c1.268-0.325,2.064-1.45,2.073-2.928
	c0.01-1.608-0.795-2.622-2.391-2.785c-1.173-0.12-2.365-0.053-3.548-0.068c-0.018,0-0.037,0.026-0.071,0.053V13.213z"/>
<path fill-rule="evenodd" clip-rule="evenodd" fill="#231F20" d="M2.748,14.201c0-2.405-0.001-4.81,0-7.215
	c0-0.888,0.178-1.073,1.081-1.059C5.371,5.949,6.922,5.89,8.453,6.039c3.321,0.322,5.529,2.364,6.201,5.638
	c0.434,2.115,0.333,4.222-0.4,6.259c-0.877,2.439-2.665,3.853-5.187,4.331c-0.748,0.141-1.518,0.195-2.28,0.221
	C5.734,22.525,4.68,22.5,3.627,22.497c-0.63-0.002-0.876-0.239-0.877-0.866C2.746,19.154,2.748,16.677,2.748,14.201 M4.328,21.106
	c1.511-0.036,2.982,0.086,4.442-0.178c1.847-0.334,3.173-1.35,3.82-3.102c0.816-2.207,0.884-4.478,0.161-6.726
	c-0.665-2.068-2.129-3.327-4.269-3.618c-1.342-0.182-2.719-0.103-4.081-0.14c-0.018,0-0.038,0.026-0.074,0.053V21.106z"/>
<path fill-rule="evenodd" clip-rule="evenodd" fill="#231F20" d="M80.701,14.255c1.084,0.533,1.66,1.407,2.072,2.396
	c0.695,1.666,1.366,3.342,2.027,5.021c0.288,0.731,0.156,0.896-0.628,0.9c-0.656,0.003-0.757-0.07-1.004-0.691
	c-0.659-1.654-1.292-3.32-1.993-4.957c-0.471-1.102-1.29-1.896-2.517-2.078c-0.752-0.111-1.528-0.063-2.293-0.086
	c-0.28-0.008-0.215,0.203-0.215,0.356c-0.003,1.461-0.002,2.921-0.002,4.382c0,0.838,0.002,1.676-0.001,2.514
	c-0.001,0.405-0.093,0.502-0.494,0.549c-0.024,0.003-0.048,0.004-0.072,0.005c-0.891,0.063-0.999-0.036-0.999-0.912
	c0-4.813,0-9.626,0-14.439c0-0.179-0.004-0.359,0.006-0.539c0.027-0.468,0.25-0.744,0.708-0.741c1.579,0.011,3.165-0.026,4.735,0.11
	c1.426,0.124,2.684,0.738,3.361,2.093c1.004,2.008,0.623,4.742-2.152,5.89C81.088,14.094,80.936,14.157,80.701,14.255 M76.17,13.425
	c1.158-0.041,2.29,0.002,3.397-0.143c1.238-0.162,2.19-0.802,2.525-2.116c0.313-1.227-0.07-2.548-0.954-3.177
	c-0.635-0.452-1.372-0.618-2.136-0.643c-0.825-0.026-1.651-0.007-2.476-0.031c-0.301-0.009-0.385,0.091-0.382,0.387
	c0.012,1.771,0.006,3.541,0.007,5.312C76.15,13.121,76.16,13.227,76.17,13.425"/>
<path fill-rule="evenodd" clip-rule="evenodd" fill="#231F20" d="M106.33,21.103h0.423c2.047,0,4.093-0.001,6.14,0.002
	c0.233,0,0.552-0.06,0.613,0.231c0.064,0.309,0.025,0.651-0.029,0.968c-0.014,0.084-0.249,0.185-0.382,0.186
	c-2.525,0.011-5.051,0.012-7.576,0.004c-0.514-0.002-0.764-0.265-0.781-0.785c-0.014-0.43-0.005-0.862-0.005-1.292
	c0-4.441-0.001-8.881,0-13.322c0-0.132-0.002-0.264,0.006-0.395c0.029-0.516,0.27-0.761,0.795-0.771
	c0.682-0.013,1.364-0.004,2.047-0.004c1.747,0,3.495,0,5.243-0.001c0.243,0,0.501-0.02,0.589,0.283
	c0.099,0.34,0.157,0.702-0.102,0.985c-0.097,0.106-0.326,0.125-0.495,0.126c-2.023,0.008-4.046,0.015-6.068-0.004
	c-0.372-0.003-0.459,0.105-0.455,0.464c0.019,1.652,0.018,3.304,0,4.955c-0.004,0.344,0.112,0.415,0.429,0.413
	c1.712-0.013,3.423-0.013,5.135,0.002c0.203,0.002,0.544,0.085,0.579,0.203c0.087,0.289,0.071,0.628,0.011,0.93
	c-0.019,0.094-0.312,0.187-0.48,0.189c-1.532,0.015-3.064,0.009-4.596,0.009c-0.251,0-0.503,0.011-0.754-0.002
	c-0.223-0.012-0.321,0.054-0.32,0.299c0.008,2.035,0.004,4.07,0.006,6.104C106.299,20.936,106.314,20.993,106.33,21.103"/>
<path fill-rule="evenodd" clip-rule="evenodd" fill="#231F20" d="M61.726,21.103h0.459c2.047,0,4.093-0.001,6.14,0.001
	c0.233,0,0.554-0.062,0.618,0.224c0.069,0.308,0.049,0.656-0.026,0.965c-0.025,0.104-0.336,0.195-0.516,0.196
	c-2.071,0.013-4.141,0.008-6.212,0.008c-0.371,0-0.742,0.002-1.113,0c-0.672-0.004-0.909-0.234-0.909-0.908
	c-0.002-3.603-0.001-7.205-0.001-10.808c0-1.317-0.003-2.633,0.001-3.95c0.002-0.675,0.234-0.906,0.911-0.907
	c2.406-0.003,4.811-0.002,7.217-0.001c0.476,0,0.628,0.174,0.631,0.7c0.003,0.522-0.151,0.697-0.631,0.697
	c-2.011,0.002-4.022,0.001-6.032,0h-0.5v5.816h0.43c1.712,0,3.423-0.001,5.135,0.001c0.223,0,0.525-0.054,0.574,0.229
	c0.054,0.313,0.021,0.652-0.045,0.964c-0.016,0.078-0.308,0.136-0.474,0.137c-1.736,0.01-3.471,0.018-5.206-0.002
	c-0.364-0.004-0.462,0.09-0.458,0.455c0.019,1.915,0.009,3.83,0.009,5.745V21.103z"/>
<path fill-rule="evenodd" clip-rule="evenodd" fill="#231F20" d="M93.473,22.79c-1.302-0.099-2.523-0.396-3.666-0.997
	c-0.673-0.354-0.851-0.707-0.764-1.459c0.055-0.473,0.247-0.566,0.677-0.353c0.715,0.353,1.416,0.754,2.163,1.022
	c1.134,0.407,2.306,0.405,3.443-0.032c1.129-0.435,1.759-1.277,1.892-2.481C97.35,17.3,96.83,16.4,95.874,15.78
	c-0.769-0.498-1.607-0.893-2.425-1.311c-0.874-0.446-1.764-0.858-2.51-1.516c-1.236-1.088-1.67-2.458-1.348-4.045
	c0.313-1.542,1.325-2.488,2.799-2.933c1.7-0.512,3.341-0.289,4.908,0.514c0.622,0.319,0.815,0.823,0.621,1.504
	c-0.091,0.32-0.23,0.389-0.528,0.235c-0.425-0.219-0.829-0.484-1.268-0.671c-1.213-0.516-2.454-0.65-3.687-0.074
	c-1.326,0.619-1.772,2.465-0.922,3.659c0.563,0.791,1.365,1.252,2.201,1.677c1.002,0.509,2.029,0.975,2.993,1.549
	c1.683,1.003,2.408,2.51,2.092,4.465c-0.309,1.908-1.487,3.058-3.291,3.586C94.85,22.612,94.152,22.67,93.473,22.79"/>
<path fill-rule="evenodd" clip-rule="evenodd" fill="#231F20" d="M33.788,22.718c-1.369-0.03-2.579-0.323-3.712-0.917
	c-0.692-0.363-0.873-0.72-0.777-1.487c0.057-0.452,0.247-0.545,0.659-0.342c0.727,0.357,1.435,0.775,2.196,1.037
	c1.211,0.417,2.446,0.394,3.643-0.129c1.861-0.813,2.291-3.466,0.779-4.725c-0.518-0.432-1.111-0.785-1.702-1.116
	c-1.053-0.589-2.169-1.073-3.189-1.712c-1.592-0.999-2.264-2.784-1.802-4.583c0.408-1.592,1.52-2.475,3.061-2.852
	c1.602-0.392,3.14-0.162,4.597,0.597c0.622,0.324,0.815,0.821,0.623,1.503c-0.091,0.322-0.229,0.39-0.527,0.236
	c-0.414-0.214-0.809-0.469-1.233-0.66c-1.001-0.452-2.046-0.582-3.119-0.308c-0.953,0.243-1.624,0.808-1.858,1.793
	c-0.237,0.999-0.017,1.906,0.766,2.578c0.529,0.454,1.141,0.827,1.754,1.166c0.836,0.463,1.717,0.845,2.564,1.291
	c0.837,0.44,1.565,1.018,2.052,1.851c1.046,1.789,0.6,4.252-1.01,5.565C36.429,22.42,35.103,22.698,33.788,22.718"/>
<path fill-rule="evenodd" clip-rule="evenodd" fill="#231F20" d="M20.329,14.167c0-2.454-0.001-4.909,0-7.363
	c0-0.792,0.35-1.147,1.131-1.15c0.419-0.002,0.838-0.008,1.257,0.002C23.321,5.672,23.7,6.053,23.7,6.659
	c0.003,4.993,0.003,9.985,0,14.978c0,0.619-0.391,0.996-1.018,1.003c-0.431,0.005-0.862,0.004-1.293,0.001
	c-0.684-0.005-1.059-0.382-1.059-1.075C20.328,19.1,20.329,16.633,20.329,14.167 M21.501,21.477h1.034V6.82h-1.034V21.477z"/>
</svg>
